<svg width="1920" height="3122" viewBox="0 0 1920 3122" fill="none" xmlns="http://www.w3.org/2000/svg">
<path fill-rule="evenodd" clip-rule="evenodd" d="M-628.163 716.645L2043.17 0.86287L2051.58 32.2356L-619.757 748.018L-628.163 716.645ZM2059.87 63.1663L-611.469 778.949L-603.063 810.322L2068.27 94.539L2059.87 63.1663ZM2193.42 561.595L-477.915 1277.38L-469.509 1308.75L2201.83 592.967L2193.42 561.595ZM-544.692 1028.16L2126.64 312.381L2135.05 343.753L-536.286 1059.54L-544.692 1028.16ZM2260.2 810.809L-411.139 1526.59L-402.732 1557.96L2268.6 842.182L2260.2 810.809ZM-578.08 903.556L2093.26 187.773L2101.66 219.146L-569.674 934.929L-578.08 903.556ZM2226.81 686.202L-444.527 1401.98L-436.121 1433.36L2235.22 717.575L2226.81 686.202ZM-511.304 1152.77L2160.03 436.988L2168.44 468.361L-502.898 1184.14L-511.304 1152.77ZM2293.59 945.416L-377.75 1661.2L-369.344 1692.57L2301.99 976.789L2293.59 945.416ZM2176.73 499.291L-494.609 1215.07L-486.203 1246.45L2185.13 530.664L2176.73 499.291ZM-561.386 965.86L2109.95 250.077L2118.36 281.45L-552.98 997.232L-561.386 965.86ZM2243.5 748.506L-427.833 1464.29L-419.427 1495.66L2251.91 779.878L2243.5 748.506ZM-594.775 841.253L2076.56 125.47L2084.97 156.843L-586.368 872.625L-594.775 841.253ZM2210.12 623.898L-461.221 1339.68L-452.815 1371.05L2218.52 655.271L2210.12 623.898ZM-527.998 1090.47L2143.34 374.684L2151.75 406.057L-519.592 1121.84L-527.998 1090.47ZM2276.89 873.112L-394.444 1588.89L-386.038 1620.27L2285.3 904.485L2276.89 873.112ZM-352.649 1794.87L2120.17 1132.29L2128.57 1163.66L-344.243 1826.25L-352.649 1794.87ZM2253.72 1630.71L-219.097 2293.3L-210.69 2324.68L2262.13 1662.09L2253.72 1630.71ZM-285.872 2044.09L2186.94 1381.5L2195.35 1412.87L-277.466 2075.46L-285.872 2044.09ZM2320.5 1879.93L-152.32 2542.52L-143.914 2573.89L2328.9 1911.3L2320.5 1879.93ZM-319.261 1919.48L2153.56 1256.89L2161.96 1288.27L-310.855 1950.85L-319.261 1919.48ZM2287.11 1755.32L-185.708 2417.91L-177.302 2449.28L2295.51 1786.69L2287.11 1755.32ZM-252.484 2168.7L2220.33 1506.11L2228.74 1537.48L-244.078 2200.07L-252.484 2168.7ZM2353.89 2004.54L-118.931 2667.12L-110.525 2698.5L2362.29 2035.91L2353.89 2004.54ZM-369.343 1732.57L2103.47 1069.98L2111.88 1101.35L-360.937 1763.94L-369.343 1732.57ZM2237.03 1568.41L-235.791 2231L-227.385 2262.37L2245.43 1599.78L2237.03 1568.41ZM-302.567 1981.79L2170.25 1319.2L2178.66 1350.57L-294.16 2013.16L-302.567 1981.79ZM2303.8 1817.63L-169.014 2480.21L-160.608 2511.59L2312.21 1849L2303.8 1817.63ZM-335.955 1857.18L2136.86 1194.59L2145.27 1225.96L-327.549 1888.55L-335.955 1857.18ZM2270.41 1693.02L-202.403 2355.61L-193.996 2386.98L2278.82 1724.39L2270.41 1693.02ZM-269.178 2106.39L2203.64 1443.8L2212.04 1475.18L-260.772 2137.77L-269.178 2106.39ZM2337.19 1942.23L-135.626 2604.82L-127.22 2636.19L2345.6 1973.6L2337.19 1942.23Z" fill="#F0F0F0" fill-opacity="0.5"/>
<path fill-rule="evenodd" clip-rule="evenodd" d="M-628.162 2868.78L2043.17 2153L2051.58 2184.37L-619.756 2900.16L-628.162 2868.78ZM2059.87 2215.3L-611.468 2931.09L-603.062 2962.46L2068.27 2246.68L2059.87 2215.3ZM2193.42 2713.73L-477.915 3429.51L-469.509 3460.89L2201.83 2745.1L2193.42 2713.73ZM-544.691 3180.3L2126.65 2464.52L2135.05 2495.89L-536.285 3211.67L-544.691 3180.3ZM2260.2 2962.95L-411.138 3678.73L-402.732 3710.1L2268.6 2994.32L2260.2 2962.95ZM-578.08 3055.69L2093.26 2339.91L2101.66 2371.28L-569.674 3087.07L-578.08 3055.69ZM2226.81 2838.34L-444.526 3554.12L-436.12 3585.49L2235.22 2869.71L2226.81 2838.34ZM-511.303 3304.91L2160.03 2589.12L2168.44 2620.5L-502.897 3336.28L-511.303 3304.91ZM2293.59 3097.55L-377.75 3813.34L-369.344 3844.71L2301.99 3128.93L2293.59 3097.55ZM2176.73 2651.43L-494.609 3367.21L-486.203 3398.58L2185.13 2682.8L2176.73 2651.43ZM-561.386 3118L2109.95 2402.21L2118.36 2433.59L-552.98 3149.37L-561.386 3118ZM2243.5 2900.64L-427.832 3616.43L-419.426 3647.8L2251.91 2932.02L2243.5 2900.64ZM-594.774 2993.39L2076.56 2277.61L2084.97 2308.98L-586.368 3024.76L-594.774 2993.39ZM2210.12 2776.04L-461.221 3491.82L-452.815 3523.19L2218.52 2807.41L2210.12 2776.04ZM-527.997 3242.6L2143.34 2526.82L2151.75 2558.19L-519.591 3273.98L-527.997 3242.6ZM2276.89 3025.25L-394.444 3741.03L-386.038 3772.4L2285.3 3056.62L2276.89 3025.25ZM-352.649 3947.01L2120.17 3284.42L2128.57 3315.8L-344.242 3978.38L-352.649 3947.01ZM2253.72 3782.85L-219.096 4445.44L-210.69 4476.81L2262.13 3814.22L2253.72 3782.85ZM-285.872 4196.23L2186.94 3533.64L2195.35 3565.01L-277.466 4227.6L-285.872 4196.23ZM2320.5 4032.07L-152.32 4694.65L-143.913 4726.03L2328.9 4063.44L2320.5 4032.07ZM-319.26 4071.62L2153.56 3409.03L2161.96 3440.4L-310.854 4102.99L-319.26 4071.62ZM2287.11 3907.46L-185.708 4570.05L-177.302 4601.42L2295.52 3938.83L2287.11 3907.46ZM-252.483 4320.83L2220.33 3658.24L2228.74 3689.62L-244.077 4352.21L-252.483 4320.83ZM2353.89 4156.67L-118.931 4819.26L-110.525 4850.63L2362.29 4188.05L2353.89 4156.67ZM-369.343 3884.71L2103.47 3222.12L2111.88 3253.49L-360.937 3916.08L-369.343 3884.71ZM2237.03 3720.55L-235.79 4383.14L-227.384 4414.51L2245.43 3751.92L2237.03 3720.55ZM-302.566 4133.92L2170.25 3471.33L2178.66 3502.71L-294.16 4165.3L-302.566 4133.92ZM2303.8 3969.76L-169.014 4632.35L-160.607 4663.72L2312.21 4001.13L2303.8 3969.76ZM-335.954 4009.32L2136.86 3346.73L2145.27 3378.1L-327.548 4040.69L-335.954 4009.32ZM2270.41 3845.15L-202.402 4507.74L-193.996 4539.12L2278.82 3876.53L2270.41 3845.15ZM-269.178 4258.53L2203.64 3595.94L2212.04 3627.31L-260.772 4289.9L-269.178 4258.53ZM2337.19 4094.37L-135.625 4756.96L-127.219 4788.33L2345.6 4125.74L2337.19 4094.37Z" fill="#F0F0F0" fill-opacity="0.5"/>
</svg>
